<svg xmlns="http://www.w3.org/2000/svg" width="180" height="60" viewBox="0 0 180 60"><defs><style>.cls-1{fill:#2c3036;}.cls-2{fill:#ff7843;}.cls-3{fill:#eab17d;}.cls-4{fill:#24bc94;}.cls-5{fill:#fff;}</style></defs><title>logo-menu</title><g id="menu-principal"><path class="cls-1" d="M96.25,18.3l-5.53,1,1.89-11L90,5.55,88.69,5,80.26,6.49,76.89,9.94,73.45,30.05l1.35.55L80,29.69,75.73,54.45l1.35.55L97.6,18.85Zm-10.8-8a2.6,2.6,0,0,1-1.79,2A1.18,1.18,0,0,1,83,10.85a2.7,2.7,0,0,1,1.69-2A1.12,1.12,0,0,1,85.45,10.27Z"/><path class="cls-2" d="M76.77,51.51,95.23,19l-5.44.93-1.95,4.57L90.69,7.81,88.5,5.53l-8,1.41-3.13,3.21L74.1,29.36l11.37-2.05-4.89,1.8Zm6.64-38.92A1.28,1.28,0,0,1,81.86,11a3,3,0,0,1,2.21-2.27,1.28,1.28,0,0,1,1.55,1.61A3,3,0,0,1,83.41,12.59Z"/><path class="cls-1" d="M27.18,17.8v4A6,6,0,0,0,26,20.58,6.09,6.09,0,0,0,24.27,19c-2-1.23-4.38-1.23-6.3-1.23H4.83v6.73l.32.14.49.21c.09,0,.17.07.2.81V38c0,.72-.1.75-.19.79L5.15,39l-.32.14v6.42l1.54,1.54H19.24c2.21,0,5,0,7.18-1.81a7,7,0,0,0,2.36-4.1,7.54,7.54,0,0,0,1.75,2.59l1.14,1.14.52.52v0c2.25,1.94,5.22,2.19,7.56,2.19s5.34-.25,7.6-2.22c2.56-2.25,2.82-4.81,2.89-7.7V27.14c0-.06,0-.12,0-.18l4.08,8.36c0,.5,0,2.39,0,2.47a4.51,4.51,0,0,1,0,.75.4.4,0,0,1-.2.29l-.39.24-.25.15v6.28L55,47.06H67V40.48l-.25-.15-.39-.24c-.17-.11-.23-.19-.22-1.11V36l4.52-8.79c.36-.8.43-.94.93-1.28l.35-.25.23-.16V19.34L70.64,17.8Zm-.74,14.54A5.89,5.89,0,0,0,28,30.15v4A5.76,5.76,0,0,0,26.45,32.34Z"/><path class="cls-1" d="M142.29,17.8V21a6.86,6.86,0,0,0-.55-.47c-2.19-2.84-6-3.21-9.07-3.21a15.67,15.67,0,0,0-6.33,1.07,7.06,7.06,0,0,0-3.13,2.69V19.34l-.15-.15-1.23-1.23-.15-.15H111.19v1.47l-.08-.08-1.23-1.23-.15-.15H99v6.59l.25.15.39.24c.17.11.23.19.23,1.11V37.74c0,.92-.05,1-.23,1.11l-.39.24-.25.15v6.28l.15.15,1.23,1.23.15.15H110.8V44.81l.08.19.21.51,0,.1.07.07,1.23,1.23.15.15h9.77V40.65A7.4,7.4,0,0,0,124,43.59l1.25,1.25c2.24,2.42,5.8,2.73,8.66,2.73,4.63,0,10.78-1,10.78-9.18V32.54L147,44.73l.13.67,0,.16.11.11,1.23,1.23.15.15h9.45l.09-.42.7-3.46.41,2.22,0,.16.12.12,1.23,1.23.15.15h9.62l.08-.43L174,28l.08-.44a2.81,2.81,0,0,1,.62-1.68l.31-.25.2-.16V19.34l-.15-.15-1.23-1.23-.15-.15Z"/><path class="cls-3" d="M6.18,44.48V40c.89-.38,1-1.15,1-2V25.65c0-.86-.12-1.63-1-2V19.14H17.65c2,0,4.2,0,5.91,1,1.89,1.15,2.51,3.28,2.51,5.38,0,2.9-1.15,4.88-4,5.68v.06c3.25.41,4.38,3,4.38,6,0,2.07-.47,4.38-2.13,5.71S20.22,44.48,18,44.48ZM15.08,29h.53c1.74,0,2.63-.38,2.63-2.28s-1-2.28-2.63-2.28h-.53Zm0,10.26h.68c1.92,0,2.6-.77,2.6-2.78s-.68-2.72-2.6-2.72h-.68Z"/><path class="cls-3" d="M39.47,19.14h9.17v4.49c-1.06.59-1,1.54-1,2.48V36.38c-.06,2.69-.27,4.82-2.43,6.71C43.37,44.72,40.8,45,38.53,45s-4.85-.27-6.71-1.89c-2.16-1.89-2.37-4-2.42-6.71V26.12c0-.95.09-1.89-.86-2.48V19.14h9.61v4.49c-.95.59-.86,1.54-.86,2.48V37.68a1.58,1.58,0,1,0,3.13,0V26.12c0-.95.06-1.89-.95-2.48Z"/><path class="cls-3" d="M51.33,26.18a5.73,5.73,0,0,0-1.63-2.54V19.14h9v3.28A8.62,8.62,0,0,0,60.2,27.1a8.61,8.61,0,0,0,1.45-4.67V19.14h8v4.49a3.52,3.52,0,0,0-1.39,1.83l-4.64,9v3c0,.95-.09,1.89.86,2.48v4.5H54.82V40a1.76,1.76,0,0,0,.8-1.12,6.75,6.75,0,0,0,.06-1.36V35Z"/><path class="cls-4" d="M113.34,30.59h.06V26.12c0-.95.09-1.89-.86-2.48V19.14h8.1v4.49c-.95.59-.86,1.54-.86,2.48V44.48h-7.66l-4.7-11.38h-.06V37.5c0,.95-.09,1.89.86,2.48v4.5h-7.86V40c.95-.59.86-1.54.86-2.48V26.12c0-.95.09-1.89-.86-2.48V19.14h8.57Z"/><path class="cls-4" d="M142.11,37.15c0,6.27-3.84,7.84-9.43,7.84s-9.43-1.57-9.43-7.84V26.48c0-6.27,3.84-7.84,9.43-7.84s9.43,1.57,9.43,7.84Zm-11,.38c0,.18-.09,2,1.54,2s1.54-1.8,1.54-2V26.06c0-.18.09-2-1.54-2s-1.54,1.77-1.54,2Z"/><path class="cls-4" d="M164,19.14h8.55v4.49c-.89.71-1,1.86-1.18,2.93l-3.34,17.92h-7.6l-2.22-12.09h-.06l-2.45,12.09h-7.45l-3.34-17.92c-.21-1-.41-2.28-1.3-2.93V19.14h9.88v4.49a1.37,1.37,0,0,0-.83,1.36l1,8h.06l2.66-13.84h4.85L164,33h.06l.8-8a1.37,1.37,0,0,0-.83-1.36Z"/><path class="cls-4" d="M6.18,44.48V40c.89-.38,1-1.15,1-2V25.65c0-.86-.12-1.63-1-2V19.14H17.65c2,0,4.2,0,5.91,1,1.89,1.15,2.51,3.28,2.51,5.38,0,2.9-1.15,4.88-4,5.68v.06c3.25.41,4.38,3,4.38,6,0,2.07-.47,4.38-2.13,5.71S20.22,44.48,18,44.48ZM15.08,29h.53c1.74,0,2.63-.38,2.63-2.28s-1-2.28-2.63-2.28h-.53Zm0,10.26h.68c1.92,0,2.6-.77,2.6-2.78s-.68-2.72-2.6-2.72h-.68Z"/><path class="cls-4" d="M39.47,19.14h9.17v4.49c-1.06.59-1,1.54-1,2.48V36.38c-.06,2.69-.27,4.82-2.43,6.71C43.37,44.72,40.8,45,38.53,45s-4.85-.27-6.71-1.89c-2.16-1.89-2.37-4-2.42-6.71V26.12c0-.95.09-1.89-.86-2.48V19.14h9.61v4.49c-.95.59-.86,1.54-.86,2.48V37.68a1.58,1.58,0,1,0,3.13,0V26.12c0-.95.06-1.89-.95-2.48Z"/><path class="cls-4" d="M51.33,26.18a5.73,5.73,0,0,0-1.63-2.54V19.14h9v3.28A8.62,8.62,0,0,0,60.2,27.1a8.61,8.61,0,0,0,1.45-4.67V19.14h8v4.49a3.52,3.52,0,0,0-1.39,1.83l-4.64,9v3c0,.95-.09,1.89.86,2.48v4.5H54.82V40a1.76,1.76,0,0,0,.8-1.12,6.75,6.75,0,0,0,.06-1.36V35Z"/><path class="cls-5" d="M120.64,19.14v4.49c-.95.59-.86,1.54-.86,2.48V44.48h-7.66l-4.7-11.38h-.06V37.5c0,.95-.09,1.89.86,2.48v4.5h-7.86V40c.95-.59.86-1.54.86-2.48V26.12c0-.95.09-1.89-.86-2.48V19.14h8.57l4.41,11.44h.06V26.12c0-.95.09-1.89-.86-2.48V19.14h8.1m.26-.26h-8.63v4.9l.12.08c.75.47.74,1.19.73,2v3.43l-4-10.28-.06-.17h-9v4.9l.12.08c.75.47.74,1.19.73,2V37.73c0,.84,0,1.57-.73,2l-.12.08v4.9h8.39v-4.9l-.12-.08c-.75-.47-.74-1.19-.73-2V34.28l4.26,10.3.07.16H120V25.89c0-.84,0-1.57.73-2l.12-.08v-4.9Z"/><path class="cls-5" d="M132.67,18.64c5.59,0,9.43,1.57,9.43,7.84V37.15c0,6.27-3.84,7.84-9.43,7.84s-9.43-1.57-9.43-7.84V26.48c0-6.27,3.84-7.84,9.43-7.84m0,20.88c1.63,0,1.54-1.8,1.54-2V26.06c0-.18.09-2-1.54-2s-1.54,1.77-1.54,2V37.53c0,.18-.09,2,1.54,2m0-21.14c-3.19,0-5.41.51-7,1.62-1.84,1.3-2.73,3.42-2.73,6.48V37.15c0,7.18,5.18,8.1,9.7,8.1,3.2,0,5.41-.51,7-1.62,1.84-1.3,2.73-3.42,2.73-6.48V26.48c0-7.18-5.18-8.1-9.7-8.1Zm0,20.88a1.14,1.14,0,0,1-.86-.31,1.92,1.92,0,0,1-.41-1.37V26a1.8,1.8,0,0,1,.41-1.34,1.35,1.35,0,0,1,1.74,0,1.79,1.79,0,0,1,.41,1.34V37.56a1.92,1.92,0,0,1-.41,1.37,1.15,1.15,0,0,1-.86.31Z"/><path class="cls-5" d="M172.59,19.14v4.49c-.89.71-1,1.86-1.18,2.93l-3.34,17.92h-7.6l-2.22-12.09h-.06l-2.45,12.09h-7.45l-3.34-17.92c-.21-1-.41-2.28-1.3-2.93V19.14h9.88v4.49a1.37,1.37,0,0,0-.83,1.36l1,8h.06l2.66-13.84h4.85L164,33h.06l.8-8a1.37,1.37,0,0,0-.83-1.36V19.14h8.55m.26-.26h-9.07v4.93l.16.07a1.12,1.12,0,0,1,.67,1.12L164,31.38l-2.47-12.29,0-.21h-5.28l0,.21-2.38,12.38L153,25a1.12,1.12,0,0,1,.67-1.1l.16-.07V18.88h-10.4v4.89l.11.08a4.1,4.1,0,0,1,1.17,2.61l0,.15L148,44.53l0,.21h7.88l0-.21,2.21-10.92,2,10.91,0,.22h8l0-.21,3.34-17.92.08-.43a3.55,3.55,0,0,1,1-2.34l.1-.08V18.88Z"/><path class="cls-5" d="M18,19.14c1.9,0,4,0,5.59,1,1.89,1.15,2.51,3.28,2.51,5.38,0,2.9-1.15,4.88-4,5.68v.06c3.25.41,4.38,3,4.38,6,0,2.07-.47,4.38-2.13,5.71S20.22,44.48,18,44.48H6.18V40c.89-.38,1-1.15,1-2V25.65c0-.86-.12-1.63-1-2V19.14H18M15.08,29h.53c1.74,0,2.63-.38,2.63-2.28s-1-2.28-2.63-2.28h-.53V29m0,10.26h.68c1.92,0,2.6-.77,2.6-2.78s-.68-2.72-2.6-2.72h-.68v5.5M18,18.88H5.91v4.93l.16.07c.74.32.82.94.85,1.78V38c0,.83-.11,1.45-.85,1.77l-.16.07v4.93H18c2.15,0,4.58,0,6.49-1.57s2.23-4,2.23-5.91c0-3.27-1.32-5.39-3.74-6.06,2.26-.92,3.36-2.78,3.36-5.65,0-1.82-.46-4.28-2.64-5.61C22,18.88,19.76,18.88,18,18.88Zm-2.64,5.79h.27c1.54,0,2.37.32,2.37,2s-.73,2-2.37,2h-.27v-4Zm0,9.31h.42c1.75,0,2.34.62,2.34,2.46S17.51,39,15.76,39h-.42V34Z"/><path class="cls-5" d="M48.64,19.14v4.49c-1.06.59-1,1.54-1,2.48V36.38c-.06,2.69-.27,4.82-2.43,6.71C43.37,44.72,40.8,45,38.53,45s-4.85-.27-6.71-1.89c-2.16-1.89-2.37-4-2.42-6.71V26.12c0-.95.09-1.89-.86-2.48V19.14h9.61v4.49c-.95.59-.86,1.54-.86,2.48V37.68a1.58,1.58,0,1,0,3.13,0V26.12c0-.95.06-1.89-.95-2.48V19.14h9.17m.26-.26H39.21v4.91l.13.08c.78.46.8,1.17.81,2,0,.09,0,.18,0,.28V37.68c0,.7-.23,1.54-1.3,1.54s-1.3-.84-1.3-1.54V25.89c0-.84,0-1.57.74-2l.12-.08v-4.9H28.27v4.9l.12.08c.75.47.74,1.19.74,2V36.38c.06,2.72.28,5,2.51,6.91,2,1.74,4.72,2,6.89,2s4.9-.22,6.88-2c2.23-2,2.45-4.19,2.51-6.9V25.91c0-.84,0-1.57.84-2l.13-.07V18.88Z"/><path class="cls-5" d="M69.6,19.14v4.49a3.52,3.52,0,0,0-1.39,1.83l-4.64,9v3c0,.95-.09,1.89.86,2.48v4.5H54.82V40a1.76,1.76,0,0,0,.8-1.12,6.75,6.75,0,0,0,.06-1.36V35l-4.35-8.84a5.73,5.73,0,0,0-1.63-2.54V19.14h9v3.28A8.62,8.62,0,0,0,60.2,27.1a8.61,8.61,0,0,0,1.45-4.67V19.14h8m.26-.26H61.38v3.54a7.92,7.92,0,0,1-1.19,4.14A7.92,7.92,0,0,1,59,22.42V18.88H49.44v4.9l.12.08a4,4,0,0,1,1.28,1.88c.08.19.17.38.26.56l4.32,8.79V37.5c0,.1,0,.19,0,.29a4.72,4.72,0,0,1-.06,1,1.48,1.48,0,0,1-.68,1l-.12.08v4.9H64.69v-4.9l-.12-.08c-.75-.47-.74-1.19-.73-2V34.55l4.61-9a3.28,3.28,0,0,1,1.31-1.74l.11-.08V18.88Z"/></g></svg>