<svg xmlns="http://www.w3.org/2000/svg" width="160" height="130" viewBox="0 0 160 130"><defs><style>.cls-1{fill:#fff;}.cls-2{fill:#24bc94;}.cls-3{fill:#ff7843;}</style></defs><title>logo</title><g id="Footer"><path d="M150.71,36.92l-13.28,2.34L142,12.74l-6.18-6.41L132.55,5,112.32,8.57l-8.08,8.29L96,65.12l3.24,1.33,12.39-2.18-10.16,59.4L104.7,125l49.25-86.75Zm-46.76,79.79,9.15-53.77,11.75-4.31L97.55,63.55l7.88-46.09,7.51-7.71L132.1,6.37l5.26,5.46-6.83,40,4.68-11,13.06-2.23Z"/><path d="M121.47,14a7.08,7.08,0,0,0-5.31,5.45c-.44,2.57,1.23,4.3,3.72,3.86a7.08,7.08,0,0,0,5.31-5.45C125.63,15.29,124,13.57,121.47,14Zm3.31,3.63a6.24,6.24,0,0,1-4.31,4.69A2.82,2.82,0,0,1,119,19,6.48,6.48,0,0,1,123,14.33,2.7,2.7,0,0,1,124.78,17.64Z"/><path d="M25.5,51.09c0-2.41-1.26-2.72-3.41-2.35l-.69.12v5.89l.69-.12C24.35,54.24,25.5,53.54,25.5,51.09Z"/><path d="M22.28,60.76l-.88.15V68l.88-.15c2.49-.44,3.37-1.59,3.37-4.19S24.77,60.32,22.28,60.76Z"/><path d="M28.76,77.38c2.85-.5,6.4-1.13,9.21-3.92a10.36,10.36,0,0,0,2.49-4A9.27,9.27,0,0,0,42,70.8a8.5,8.5,0,0,0,2,1l2.44,1a11,11,0,0,0,4.75.94,23.63,23.63,0,0,0,4.14-.41c3-.53,6.87-1.53,9.74-4.55,3.25-3.42,3.59-6.79,3.67-10.52V47.68L72,53.82v2.73c0,.13,0,.26,0,.39a6,6,0,0,1,0,1,1,1,0,0,1-.36.57l-.72.57v9l3.23,1.32,16.26-2.87V57.85l-1.07-.48c0-.22,0-4.77,0-4.77l5.82-12.34,0,0,0,0a4,4,0,0,1,1.29-2l.66-.57v-9l-3.23-1.32-57,10v3.9L36.38,41l-.09,0h0L33.15,39.7h0l-.07,0h0A9.22,9.22,0,0,0,29.37,39a27.93,27.93,0,0,0-4.78.56l-.2,0L9.55,42.2,8,42.48v8.91l1.26.32a5.91,5.91,0,0,1,0,.6V68.2c0,1-.15,1.09-.38,1.23L8,70v9.17l3.24,1.32ZM66.21,34.15l11.71-2.06v4.25A9.6,9.6,0,0,0,79.8,42a12.85,12.85,0,0,0,1.88-6.38V31.42L92,29.61v5.82a5.79,5.79,0,0,0-1.8,2.69l-6,12.73v3.9c0,1.22-.12,2.47,1.11,3v5.82L72.83,65.78V60a2.86,2.86,0,0,0,1-1.64,9,9,0,0,0,.08-1.77V53.34L68.32,42.89c-.57-1.08-1-2.39-2.11-2.92ZM38.81,39l12.44-2.19v5.82c-1.22,1-1.11,2.18-1.11,3.41V61c0,.65.15,2.31,2,2a2.49,2.49,0,0,0,2-2.69v-15c0-1.22.08-2.46-1.22-3V36.49l11.86-2.09v5.82c-1.38,1-1.26,2.21-1.26,3.44V56.93c-.08,3.5-.34,6.3-3.14,9.24-2.41,2.53-5.74,3.46-8.69,4s-6.28.76-8.69-.92c-2.79-2-3.06-4.66-3.14-8.13V47.82c0-1.22.11-2.47-1.11-3ZM9.88,71.06a3,3,0,0,0,1.3-2.83v-16c0-1.1-.15-2.08-1.3-2.37V44.08l14.85-2.62c2.56-.45,5.43-1,7.65,0,2.45,1.06,3.25,3.67,3.25,6.39,0,3.75-1.49,6.58-5.17,8.26v.08c4.21-.21,5.66,2.9,5.66,6.73,0,2.68-.61,5.77-2.76,7.87-2.33,2.33-5.32,2.89-8.19,3.4L9.88,76.88Z"/><path d="M49.79,85.38c-2.1.37-2,2.65-2,2.88v14.85c0,.23-.12,2.58,2,2.21s2-2.68,2-2.91V87.56C51.78,87.33,51.9,85,49.79,85.38Z"/><path d="M106,78.35l.58-.56v-8.9l-3.23-1.32L62.08,74.85v3.28h0L59,76.85h0A11.65,11.65,0,0,0,54.18,76a27.29,27.29,0,0,0-4.72.47c-4.42.78-7.52,2.06-9.75,4l-.34.33v0l-3.23-1.32L21.82,81.94v.92l-1.57-.64L6.06,84.72v8.66l1.07.48a6.4,6.4,0,0,1,0,1V110.2c0,1.12,0,1.33-.39,1.61l-.72.57v9l3.23,1.32,14-2.47v-1.17l2,.82,13-2.29v-5.4a7.67,7.67,0,0,0,2.57,1.71h0l.35.14h0l2.85,1.17h0a11.85,11.85,0,0,0,4.58.82,27.18,27.18,0,0,0,4.72-.47c4.42-.78,7.52-2.06,9.75-4a12.08,12.08,0,0,0,4-8.44l1,5.41.36,1.85,3.23,1.32,12.79-2.26.31-1.61,2.66,1.08,13-2.29,4.66-25.85A4.26,4.26,0,0,1,106,78.35ZM34.22,87.52c-1.22,1-1.11,2.19-1.11,3.41v23.76l-9.91,1.75-6.08-13.66H17v5.7c0,1.22-.12,2.47,1.11,3v5.82L8,119.12v-5.82c1.23-1,1.11-2.19,1.11-3.41V95.17c0-1.23.12-2.47-1.11-3V86.33l11.1-2,5.7,13.8h.08V92.38c0-1.22.11-2.47-1.11-3V83.55L34.22,81.7ZM62,100.11c0,8.11-5,11-12.21,12.29s-12.21.12-12.21-8V90.6c0-8.11,5-11,12.21-12.29S62,78.18,62,86.29Zm39.45-24.44c-1.15,1.12-1.26,2.63-1.53,4.06l-4.32,24-9.84,1.73L82.9,90.26h-.08l-3.18,16.21L70,108.19,65.67,85.76c-.27-1.29-.54-2.85-1.68-3.49V76.45L76.77,74.2V80A2.18,2.18,0,0,0,75.7,82L77,92.07H77l3.44-18.52,6.28-1.11,3.6,17.23h.08l1-10.48a1.44,1.44,0,0,0-1.07-1.57V71.8l11.06-2Z"/><path class="cls-1" d="M9.28,70.72l.29-.18c.88-.54,1-1.31,1-2.33V52.27c0-1.24-.22-1.63-.85-1.79l-.45-.12V43.58l15.55-2.74a26.46,26.46,0,0,1,4.55-.54,7.91,7.91,0,0,1,3.26.61c2.36,1,3.61,3.42,3.61,6.94S35,54,32.39,55.73c2.82.64,4.35,3.13,4.35,7.19,0,2.48-.51,5.93-2.94,8.3s-5.7,3.06-8.51,3.56l-16,2.83ZM22,67.31l.17,0C24.35,66.9,25,66,25,63.69s-.74-2.43-1.64-2.43a6,6,0,0,0-1,.1l-.38.07ZM22,54c2.26-.4,2.88-1,2.88-2.95,0-1.58-.53-1.87-1.5-1.87a7,7,0,0,0-1.19.13l-.19,0Z"/><path class="cls-2" d="M29.37,40.9a7.38,7.38,0,0,1,3,.55c2.45,1.06,3.25,3.67,3.25,6.39,0,3.75-1.49,6.58-5.17,8.26v.08h.39c3.91,0,5.27,3,5.27,6.74,0,2.68-.61,5.77-2.76,7.87-2.33,2.33-5.32,2.89-8.19,3.4L9.88,76.88V71.06a3,3,0,0,0,1.3-2.83v-16c0-1.1-.15-2.08-1.3-2.37V44.08l14.85-2.62a27.47,27.47,0,0,1,4.64-.56m-8,13.85.69-.12c2.26-.4,3.41-1.1,3.41-3.55,0-1.87-.76-2.48-2.11-2.48a7.61,7.61,0,0,0-1.3.13l-.69.12v5.89M21.4,68l.88-.15c2.49-.44,3.37-1.59,3.37-4.19,0-2.1-.61-3-2.25-3a6.48,6.48,0,0,0-1.12.11l-.88.15V68m8-28.34h0a27,27,0,0,0-4.65.55l-.2,0L9.67,42.89l-1,.18v7.77l.91.23c.21.05.35.09.39,1.24V68.23c0,1-.14,1.45-.72,1.8l-.58.35v7.94l1.42-.25,15.31-2.7c2.75-.49,6.18-1.09,8.83-3.73s3.11-6.14,3.11-8.73c0-3.77-1.31-6.34-3.69-7.4a9.63,9.63,0,0,0,3.19-7.66c0-3.73-1.41-6.39-4-7.5a8.49,8.49,0,0,0-3.49-.65Zm-6.76,10.2a5.46,5.46,0,0,1,.78-.07,1.11,1.11,0,0,1,.67.15c.05.06.22.31.22,1.12,0,1.37-.32,1.87-1.67,2.2v-3.4Zm0,12.05a5,5,0,0,1,.79-.07h0c.59,0,.71.16.76.23a2.89,2.89,0,0,1,.28,1.6c0,1.84-.39,2.52-1.82,2.88V61.94Z"/><path class="cls-1" d="M47.94,71.14a8.87,8.87,0,0,1-5.23-1.41c-3-2.11-3.32-5-3.4-8.62V47.52c0-1.17,0-1.84-.75-2.17l-.36-.16V38.47l13.65-2.41V42.9l-.23.18c-.9.72-.89,1.57-.88,2.64V61a2.24,2.24,0,0,0,.18,1,.76.76,0,0,0,.78.45,2.08,2.08,0,0,0,.36,0,1.88,1.88,0,0,0,1.53-2.1V45c0-1.16-.07-1.78-.84-2.1l-.37-.16V36l13.07-2.31v6.85l-.25.18c-1,.75-1,1.6-1,2.68V56.93c-.08,3.59-.37,6.57-3.3,9.66-2.61,2.74-6.19,3.66-9,4.16a22.34,22.34,0,0,1-3.91.4Z"/><path class="cls-2" d="M64.83,34.39v5.82c-1.38,1-1.26,2.21-1.26,3.44V56.93c-.08,3.5-.34,6.3-3.14,9.24-2.41,2.53-5.74,3.46-8.69,4a22.19,22.19,0,0,1-3.8.39,8.4,8.4,0,0,1-4.88-1.3c-2.79-2-3.06-4.66-3.14-8.13V47.82c0-1.22.11-2.47-1.11-3V39l12.44-2.19v5.82c-1.22,1-1.11,2.18-1.11,3.41V61c0,.59.13,2,1.57,2a2.68,2.68,0,0,0,.46,0,2.49,2.49,0,0,0,2-2.69v-15c0-1.22.08-2.46-1.22-3V36.49l11.86-2.09M66,32.95l-1.42.25L52.76,35.29l-1,.18h0L51,35.6,38.6,37.79l-1,.18v7.62l.72.32c.32.14.4.36.39,1.61V61.1c.08,3.66.41,6.85,3.65,9.13a9.46,9.46,0,0,0,5.58,1.52,23,23,0,0,0,4-.4c2.92-.51,6.62-1.47,9.35-4.34,3.08-3.25,3.39-6.34,3.47-10V43.38c0-1.12,0-1.64.77-2.19l.5-.36V32.95ZM51.71,61.79c-.13,0-.36,0-.36-.81V45.72c0-1.1,0-1.65.66-2.17l.28-.22.23.09c.35.14.44.32.47,1.55V60.26c0,1.32-.72,1.44-1,1.5l-.25,0Z"/><path class="cls-1" d="M72.23,59.67l.23-.18a2.24,2.24,0,0,0,.82-1.31,6.24,6.24,0,0,0,.06-1.25V53.49L67.78,43.17c-.12-.22-.23-.45-.34-.68a3.87,3.87,0,0,0-1.49-2l-.34-.17V33.64l12.92-2.28v5a8.33,8.33,0,0,0,1.22,4.47,11.06,11.06,0,0,0,1.32-5.13V30.92l11.51-2V35.7l-.21.18a5.23,5.23,0,0,0-1.64,2.46L84.76,51V55c0,1.17,0,1.84.75,2.17l.36.16v6.72L72.23,66.5Z"/><path class="cls-2" d="M92,29.61v5.82a5.79,5.79,0,0,0-1.8,2.69l-6,12.73v3.9c0,1.22-.12,2.47,1.11,3v5.82L72.83,65.78V60a2.86,2.86,0,0,0,1-1.64,9,9,0,0,0,.08-1.77V53.34L68.32,42.89c-.57-1.08-1-2.39-2.11-2.92V34.15l11.71-2.06v4.25A9.6,9.6,0,0,0,79.8,42a12.85,12.85,0,0,0,1.88-6.38V31.42L92,29.61m1.21-1.44-1.42.25L81.46,30.23l-1,.18v5.26a9.43,9.43,0,0,1-.74,3.72,7.49,7.49,0,0,1-.58-3.05V30.64l-1.42.25L66,33l-1,.18v7.6l.69.33a3.54,3.54,0,0,1,1.21,1.7c.11.24.23.47.35.7l5.48,10.19v3.29a6,6,0,0,1-.05,1.12,1.63,1.63,0,0,1-.61,1l-.45.36v7.84L73,67l12.44-2.19,1-.18V57l-.72-.32c-.32-.14-.4-.36-.39-1.61V51.12l5.89-12.48v-.05a4.66,4.66,0,0,1,1.47-2.24l.42-.36V28.17Z"/><path class="cls-1" d="M7.36,113l.23-.18c.9-.72.89-1.57.88-2.64V94.87c0-1.17,0-1.84-.75-2.17l-.36-.16V85.82l12.08-2.13,4.8,11.62V92.09c0-1.17,0-1.84-.75-2.17l-.36-.16V83L34.83,81v6.83L34.6,88c-.9.72-.89,1.57-.88,2.64V115.2l-10.88,1.92-5.19-11.66v3.33c0,1.17,0,1.84.75,2.17l.36.16v6.72l-11.39,2Z"/><path class="cls-2" d="M34.22,81.7v5.82c-1.22,1-1.11,2.19-1.11,3.41v23.76l-9.91,1.75-6.08-13.66H17v5.7c0,1.22-.12,2.47,1.11,3v5.82L8,119.12v-5.82c1.23-1,1.11-2.19,1.11-3.41V95.17c0-1.23.12-2.47-1.11-3V86.33l11.1-2,5.7,13.8h.08V92.38c0-1.22.11-2.47-1.11-3V83.55L34.22,81.7m1.21-1.44L34,80.51,23.53,82.36l-1,.18v7l-2.34-5.66-.37-.9-1,.17-11.1,2-1,.18v7.62l.72.32c.32.14.4.36.39,1.61V110.2c0,1.1,0,1.65-.66,2.16l-.45.36v7.84l1.42-.25,10.18-1.79,1-.18V110.8l2.73,6.13.39.86.93-.16,9.91-1.75,1-.18V90.63c0-1.1,0-1.65.66-2.17l.45-.36V80.26Zm-11.8,12-.81-2,.42.19c.32.14.4.36.39,1.61v.17Zm-4.31,18.45-.68-.3c-.32-.14-.4-.36-.4-1.61v-.49l1.07,2.4Z"/><path class="cls-1" d="M45.41,113.45c-5.67,0-8.43-3-8.43-9V90.6c0-9.44,6.79-11.85,12.71-12.89a26,26,0,0,1,4.49-.45c5.67,0,8.43,3,8.43,9v13.81c0,9.44-6.79,11.85-12.71,12.89a26,26,0,0,1-4.49.45Zm4.82-27.5-.33,0c-1.25.22-1.5,1.34-1.49,2.24v14.89a1.94,1.94,0,0,0,.37,1.44.75.75,0,0,0,.59.21l.32,0c1.25-.22,1.5-1.36,1.49-2.28V87.56a1.89,1.89,0,0,0-.36-1.4A.76.76,0,0,0,50.23,85.95Z"/><path class="cls-2" d="M54.18,77.86C59,77.86,62,80,62,86.29v13.81c0,8.11-5,11-12.21,12.29a25.63,25.63,0,0,1-4.39.44c-4.78,0-7.82-2.09-7.82-8.43V90.6c0-8.11,5-11,12.21-12.29a25.64,25.64,0,0,1,4.38-.44m-4.81,27.5a2.45,2.45,0,0,0,.43,0c2.11-.37,2-2.68,2-2.91V87.56c0-.21.1-2.21-1.56-2.21a2.5,2.5,0,0,0-.43,0c-2.1.37-2,2.65-2,2.88v14.85c0,.21-.1,2.25,1.56,2.25m4.81-28.71a26.62,26.62,0,0,0-4.59.46c-6.15,1.08-13.21,3.6-13.21,13.49v13.81c0,6.4,3,9.64,9,9.64a26.61,26.61,0,0,0,4.6-.46c6.15-1.08,13.21-3.6,13.21-13.49V86.29c0-6.4-3-9.64-9-9.64Zm-4.81,27.5s-.13,0-.16,0-.21-.22-.19-1h0V88.26h0v0c0-1.45.74-1.59,1-1.63l.22,0s.13,0,.16,0,.2.21.19.92h0v14.89h0v0c0,1.49-.74,1.62-1,1.67l-.21,0Z"/><path class="cls-1" d="M65,85.69c-.23-1.13-.5-2.42-1.35-2.89l-.31-.17V75.94l14-2.47v6.88l-.29.18A1.58,1.58,0,0,0,76.31,82l.8,6.41L80,73l7.27-1.28,3,14.18.67-6.8c0-.77-.45-.88-.61-.92l-.46-.11v-6.8l12.27-2.16v6.79l-.18.18a5.36,5.36,0,0,0-1.25,3.15l-4.5,24.95-10.84,1.91L82.85,93.27,80.16,107l-10.64,1.88Z"/><path class="cls-2" d="M101.46,69.85v5.82c-1.15,1.12-1.26,2.63-1.53,4.06l-4.32,24-9.84,1.73L82.9,90.26h-.08l-3.18,16.21L70,108.19,65.67,85.76c-.27-1.29-.54-2.85-1.68-3.49V76.45L76.77,74.2V80A2.18,2.18,0,0,0,75.7,82L77,92.07H77l3.44-18.51,6.28-1.11,3.6,17.24h.08l1-10.48a1.44,1.44,0,0,0-1.07-1.57V71.8l11.06-2m1.21-1.44-1.42.25-11.06,2-1,.18v7.34l-1.24-5.93L87.71,71l-1.16.2-6.28,1.11-.83.15-.15.83-1.31,7v-7.6L76.56,73,63.78,75.26l-1,.18V83l.62.35c.61.34.84,1.48,1,2.48l0,.19,4.32,22.41.23,1.17,1.17-.21,9.64-1.7.82-.14.16-.82,2-10.24,1.73,9.16.22,1.18L86,106.6l9.84-1.73.83-.15.15-.83,4.32-24c0-.19.07-.38.1-.58a4.86,4.86,0,0,1,1.08-2.82l.37-.36V68.4ZM90,81.92l-.7-3.34.83.2c.06,0,.14,0,.15.34L90,81.92Zm-13.06,0a1,1,0,0,1,.48-.84l.52-.31-.68,3.67-.31-2.52Z"/><path class="cls-3" d="M130.53,51.85l6.83-40L132.1,6.37,112.94,9.75l-7.51,7.71L97.55,63.55l27.29-4.92L113.1,62.94l-9.15,53.77,44.32-78.07-13.06,2.23Zm-5.34-34a7.08,7.08,0,0,1-5.31,5.45c-2.49.44-4.16-1.29-3.72-3.86A7.08,7.08,0,0,1,121.47,14C124,13.57,125.63,15.29,125.19,17.87Z"/></g></svg>