<svg xmlns="http://www.w3.org/2000/svg" width="220" height="100" viewBox="0 0 220 100"><defs><style>.cls-1{fill:#b1b1b1;fill-rule:evenodd;}</style></defs><title>atma</title><g id="parts"><path class="cls-1" d="M172.15,33.6H157.48L142.8,62.95V33.6H127.26l-5.18,14.67L115.18,33.6H99.64V66.4h9.49V44l8.63,22.44h7.77L133.31,44V66.4h18.13l5.18-8.63,4.31,8.63h25.9ZM156.61,56.91l7.77-15.54,7.77,15.54ZM69.43,43.09h8.63V64.68L62.52,33.6H47.85L33.18,66.4h25.9l4.32-9.49H47.85l7.77-15.54,7.77,15.54,5.18,9.49h19V43.09h7.77l4.32-9.49H69.43Z"/></g></svg>