<svg xmlns="http://www.w3.org/2000/svg" width="220" height="100" viewBox="0 0 220 100"><defs><style>.cls-1,.cls-2{fill:#b1b1b1;}.cls-2{fill-rule:evenodd;}</style></defs><title>einhell</title><g id="parts"><path class="cls-1" d="M41.41,52.66H33v1.92l16.41,0v7.89H19.63s0-23,0-23H49.42V47.9h-8l0,4.75Z"/><path class="cls-1" d="M64.71,43.71V39.48H54v4.25s10.73,0,10.73,0Z"/><path class="cls-1" d="M115.72,52.11V62.47h10.34s0-15.52,0-15.52h-14.9s0-7.43,0-7.43H100.42v23s10.8,0,10.73,0V52.11Z"/><path class="cls-1" d="M161.73,62.46s10.65,0,10.73,0,0-23,0-23-10.75,0-10.75,0,0,23,0,23Z"/><path class="cls-1" d="M54,62.46H64.71s0-15.59,0-15.53L54,46.91s0,15.55,0,15.55Z"/><path class="cls-1" d="M69.27,62.47H80c0,.07,0-10.4,0-10.36h5.13V62.46H95.84s0-15.53,0-15.53H69.27V62.47Z"/><path class="cls-1" d="M177,62.46s10.65,0,10.73,0,0-23,0-23-10.75,0-10.75,0,0,23,0,23Z"/><path class="cls-2" d="M195.55,47.2a4.84,4.84,0,1,0-4.85-4.85,4.83,4.83,0,0,0,4.85,4.85Zm0-.58a4.25,4.25,0,1,1,4.24-4.27,4.25,4.25,0,0,1-4.24,4.27Zm.77-4.05c1,0,1.71-.42,1.71-1.48a1.33,1.33,0,0,0-.61-1.17,2.49,2.49,0,0,0-1.32-.27h-2.36v5.41h.66V42.56h1.22l1.54,2.49H198l-1.63-2.49ZM194.41,42V40.13H196c.67,0,1.41.1,1.41.94,0,1.1-1.18,1-1.94,1Z"/><path class="cls-1" d="M195.55,47.2a4.84,4.84,0,1,0-4.85-4.85,4.83,4.83,0,0,0,4.85,4.85Zm0-.58a4.25,4.25,0,1,1,4.24-4.27,4.25,4.25,0,0,1-4.24,4.27Zm.77-4.05c1,0,1.71-.42,1.71-1.48a1.33,1.33,0,0,0-.61-1.17,2.49,2.49,0,0,0-1.32-.27h-2.36v5.41h.66V42.56h1.22l1.54,2.49H198l-1.63-2.49ZM194.41,42V40.13H196c.67,0,1.41.1,1.41.94,0,1.1-1.18,1-1.94,1Z"/><path class="cls-2" d="M141.34,52.89l0-2,4.42,0,0,1.92-4.45,0Zm0,3.42,15.81-.05c.08-2.81,0-9.32,0-9.32H130.62V62.46h26.53s0-4.85,0-4.85h-15.8s0-1.33,0-1.33Z"/></g></svg>