<svg xmlns="http://www.w3.org/2000/svg" width="220" height="100" viewBox="0 0 220 100"><defs><style>.cls-1,.cls-2{fill:#b1b1b1;}.cls-1{fill-rule:evenodd;}</style></defs><title>karcher</title><g id="parts"><path class="cls-1" d="M178.42,62.72h8V60.39c0-.6,0-1.2,0-1.8,0-1,0-1.94,0-2.91V54.35h3.22l.1.18,3.87,7.43.42.78h9.4l-2.16-3.28c-1.44-2.2-2.9-4.39-4.33-6.59a3.72,3.72,0,0,1,.41-.24c.27-.14,5.09-2.46,3.78-9.15a8.28,8.28,0,0,0-.22-.8,6.71,6.71,0,0,0-.45-1c-2.15-4.36-9.48-4.34-10-4.35-1.7,0-3.4,0-5.11,0-2.28,0-4.53,0-6.84,0,0,4.27,0,8.49,0,12.75,0,2.13,0,4.24,0,6.37,0,1.06,0,2.12,0,3.18q0,.15,0,.3ZM189.09,49a6.54,6.54,0,0,0,2.71-.35,2.59,2.59,0,0,0,1.2-2.51c0-1-.1-2.13-1.11-2.58-.06,0-.06-.06-.13-.07l-.14,0a8.67,8.67,0,0,0-2.57-.22h-2.63v1.53c0,1.12,0,2.22,0,3.35V49h.91C187.9,49,188.49,49,189.09,49Z"/><path class="cls-1" d="M120.34,62l.83-.28-.12-.8c-.19-1.29-.37-2.58-.56-3.87l-.2-1.34-.6.24c-.23.09-7.49,2.36-10.1-.85a7.17,7.17,0,0,1-1.08-4.33c0-.46,0-.92,0-1.38a13.82,13.82,0,0,1,.18-2.18,5.25,5.25,0,0,1,.76-2.14,3.57,3.57,0,0,1,2-1.41,13.45,13.45,0,0,1,4.37-.31,20.32,20.32,0,0,1,3.52.51l.91.21.26-1.91c.05-.39.11-.78.15-1.18.07-.64.16-1.27.24-1.9l.15-1.24-.63-.19a23.27,23.27,0,0,0-6.26-.85,18.78,18.78,0,0,0-6.95,1.13l-.13,0L107,38a10.85,10.85,0,0,0-3.71,2.49,10.67,10.67,0,0,0-2.31,3.82,15.09,15.09,0,0,0-.8,4c-.33,5.5,1.31,8.75,2.21,10.1C108.51,66.4,120.18,62,120.34,62Z"/><path class="cls-1" d="M24.54,62.72V61.23c0-1.76,0-3.5,0-5.26,0-.46,0-.91,0-1.37V52.78H27L27.71,54l4.11,6.61.36.58,1,1.56H51.32l.33-1.09c.08-.25.15-.51.24-.76l.18-.54.61-1.9H62.2l.53,1.71c0,.17.1.34.16.51l.65,2.05h9L71.2,59.53,66.81,48.7l-2.75-6.79L63,39.21l-.79-1.95H52.91l-.54,1.41c-.21.56-.44,1.11-.66,1.67l-1.34,3.38L45,57.28l-1.33,3.35-.24.61-.56,1.42-.76-1.18-.15-.23-4.4-6.71-2.24-3.42-.14-.22-1.07-1.58,1.38-2,1.93-2.79,2.3-3.33,1.11-1.61,1.61-2.33H33.2l-1.29,2-3.45,5.35-.55.85-.21.33-.63,1H24.55v-1.5c0-.22,0-.44,0-.66q0-2.72,0-5.44V37.27h-8v2.37c0,.93,0,1.87,0,2.8,0,2.25,0,4.5,0,6.75,0,3,0,6,0,9v4.52h7.94Zm30-10.2h5.77l-.59-1.91q-.41-1.33-.83-2.65c-.35-1.11-.68-2.22-1-3.34l-.42-1.44L57,44.74q-.24.82-.49,1.64c0,.1-.07.19-.1.29-.38,1.2-.77,2.39-1.15,3.58Z"/><path class="cls-1" d="M74.92,62.72h8V60.39c0-.6,0-1.2,0-1.8,0-1,0-1.94,0-2.91V54.35h3.22l.1.18,3.87,7.43.42.78h9.4l-2.16-3.28c-1.44-2.2-2.9-4.39-4.33-6.59a3.72,3.72,0,0,1,.41-.24c.27-.14,5.09-2.46,3.78-9.15a8.27,8.27,0,0,0-.22-.8,6.71,6.71,0,0,0-.45-1c-2.15-4.36-9.48-4.34-10-4.35-1.7,0-3.4,0-5.11,0-2.28,0-4.53,0-6.84,0,0,4.27,0,8.49,0,12.75,0,2.13,0,4.24,0,6.37,0,1.06,0,2.12,0,3.18q0,.15,0,.3ZM85.58,49a6.55,6.55,0,0,0,2.71-.35,2.59,2.59,0,0,0,1.2-2.51c0-1-.1-2.13-1.11-2.58-.06,0-.06-.06-.13-.07l-.14,0a8.67,8.67,0,0,0-2.57-.22H82.9v1.53c0,1.12,0,2.22,0,3.35V49h.91C84.4,49,85,49,85.58,49Z"/><rect class="cls-2" x="43.51" y="37.26" width="5.98" height="5.42"/><rect class="cls-2" x="65.65" y="37.26" width="5.96" height="5.42"/><polygon class="cls-1" points="141.12 53.13 141.12 62.72 149.08 62.72 149.08 37.27 141.12 37.27 141.12 46.62 132.69 46.62 132.69 37.27 124.73 37.27 124.73 62.72 132.69 62.72 132.69 53.13 141.12 53.13"/><polygon class="cls-1" points="161.78 52.61 172.11 52.61 172.11 46.96 161.78 46.96 161.78 43.61 174.31 43.61 174.16 37.27 157.39 37.27 157.39 37.27 153.81 37.27 153.81 62.72 157.87 62.72 157.87 62.72 174.64 62.72 174.79 56.38 161.78 56.38 161.78 52.61"/></g></svg>