<svg xmlns="http://www.w3.org/2000/svg" width="220" height="100" viewBox="0 0 220 100"><defs><style>.cls-1{fill:#b1b1b1;}</style></defs><title>philco</title><g id="parts"><path class="cls-1" d="M160.47,63.85a15.07,15.07,0,0,1-5.74-5.63,16.58,16.58,0,0,1,0-16.25,15.13,15.13,0,0,1,5.74-5.61,16.71,16.71,0,0,1,15.92,0,14.82,14.82,0,0,1,5.7,5.61,16.8,16.8,0,0,1,0,16.25,15,15,0,0,1-5.7,5.63,16.67,16.67,0,0,1-15.9,0m13.86-7.28a9.32,9.32,0,0,0,2.21-6.49,9.3,9.3,0,0,0-2.21-6.51,7.59,7.59,0,0,0-5.9-2.43,7.68,7.68,0,0,0-5.94,2.41,9.29,9.29,0,0,0-2.21,6.53,9.31,9.31,0,0,0,2.21,6.51A7.64,7.64,0,0,0,168.43,59,7.55,7.55,0,0,0,174.33,56.57Z"/><polyline class="cls-1" points="72.12 35.08 72.12 46.23 59.05 46.23 59.05 35.08 50.66 35.08 50.66 64.95 59.05 64.95 59.05 53.85 72.12 53.85 72.12 64.95 80.52 64.95 80.52 35.08 72.12 35.08"/><rect class="cls-1" x="85.02" y="35.08" width="8.35" height="29.66"/><polyline class="cls-1" points="106.18 56.95 106.18 35.08 97.83 35.08 97.83 64.74 117.56 64.74 117.56 56.95 106.18 56.95"/><path class="cls-1" d="M46.24,40.91a10.53,10.53,0,0,0-4.59-4.22,16.63,16.63,0,0,0-7.49-1.53H16.3V64.74h8.61V58.9h9.25a16,16,0,0,0,7.59-1.63A10.86,10.86,0,0,0,46.29,53a11.92,11.92,0,0,0,1.48-5.88,12.27,12.27,0,0,0-1.53-6.17m-8.91,9.6a5.38,5.38,0,0,1-3.85,1.21H24.91V42.44h8.56a5.38,5.38,0,0,1,3.85,1.21,4.53,4.53,0,0,1,1.27,3.43A4.53,4.53,0,0,1,37.32,50.51Z"/><path class="cls-1" d="M203.7,49.82a1.38,1.38,0,0,1-.73,1.27c-4,3.28-8.07,6.52-12.11,9.78-.63.51-1.33,1-2.08.47-1.05-.7-.27-1.56.07-2.26a20.08,20.08,0,0,0,0-18.44c-.29-.6-1.1-1.36-.25-2s1.64-.23,2.36.35q6.07,4.87,12.14,9.74a1.35,1.35,0,0,1,.62,1.14"/><path class="cls-1" d="M142.12,55a6.74,6.74,0,0,1-2.64,3,7.42,7.42,0,0,1-3.88,1,7.25,7.25,0,0,1-5.68-2.44A9.44,9.44,0,0,1,127.74,50a9.44,9.44,0,0,1,2.17-6.52,7.25,7.25,0,0,1,5.68-2.44,7.43,7.43,0,0,1,3.88,1,6.75,6.75,0,0,1,2.64,3h.07l7.47-2.33a13.69,13.69,0,0,0-4.48-5.66,15.49,15.49,0,0,0-9.5-2.93,16.17,16.17,0,0,0-8.1,2A14.27,14.27,0,0,0,122,41.79,16.75,16.75,0,0,0,120,50a16.62,16.62,0,0,0,2,8.21,14.31,14.31,0,0,0,5.57,5.61,16.16,16.16,0,0,0,8.1,2,15.57,15.57,0,0,0,9.5-2.91,13.75,13.75,0,0,0,5-6.92l-8-1"/></g></svg>