<svg xmlns="http://www.w3.org/2000/svg" width="220" height="100" viewBox="0 0 220 100"><defs><style>.cls-1{fill:#b1b1b1;}</style></defs><title>westinghouse</title><g id="parts"><path class="cls-1" d="M152.07,45.88a1.5,1.5,0,0,0-3,0,.9.9,0,0,0,0,.1,4.11,4.11,0,0,0-7.16,2.77v2.39a4.15,4.15,0,0,0,1.67,3.31,2,2,0,0,0-1.69,1.87,2,2,0,0,0,2,2.31v0h4.89a.92.92,0,0,1,1,1,.93.93,0,0,1-1,1h-4.89V58.64a2,2,0,0,0-2,2,2,2,0,0,0,2,1.83h5.12a2.7,2.7,0,0,0,2.66-3,2.79,2.79,0,0,0-2.66-3h-5.12V54.66a4,4,0,0,0,2.1.6,4.13,4.13,0,0,0,4.12-4.12V48.75a4.2,4.2,0,0,0-.33-1.62,1.52,1.52,0,0,0,2.25-1.25ZM147.56,51a1.58,1.58,0,1,1-3.16,0V48.56a1.59,1.59,0,1,1,3.16,0Z"/><path class="cls-1" d="M47.32,20.48A29.52,29.52,0,1,0,76.86,50,29.58,29.58,0,0,0,47.32,20.48Zm0,56.25A26.73,26.73,0,1,1,74,50,26.79,26.79,0,0,1,47.32,76.73Z"/><path class="cls-1" d="M61.43,35a4.48,4.48,0,0,0-2.66,8.08l-4.23,8.85-4.79-8.64a4.48,4.48,0,1,0-4.66,0l-4.48,8.62-4.18-9.16a4.55,4.55,0,0,0,1.44-3.29,4.49,4.49,0,1,0-4.48,4.48,4.75,4.75,0,0,0,.94-.08L40.55,57.1l6.77-13.16h.21l7,13.16,6.2-13.2a3.8,3.8,0,0,0,.69,0,4.48,4.48,0,1,0,0-9Z"/><path class="cls-1" d="M57,59H37.87a3.45,3.45,0,1,0,0,6.89H57A3.45,3.45,0,1,0,57,59Z"/><path class="cls-1" d="M105.09,44.32a4.3,4.3,0,0,0-4.31,4.27v6a4.32,4.32,0,0,0,8.64,0v-.94h-2.6v.79a1.68,1.68,0,1,1-3.33,0V52.17h5.93V48.58A4,4,0,0,0,105.09,44.32Zm1.73,5.35h-3.33v-.75c0-1.39.83-2.08,1.67-2.08s1.67.71,1.67,2.08Z"/><path class="cls-1" d="M202.2,52.17V48.58a4,4,0,0,0-4.31-4.27,4.3,4.3,0,0,0-4.31,4.27v6a4.31,4.31,0,0,0,8.62,0v-.94h-2.6v.79a1.67,1.67,0,1,1-3.31,0V52.17Zm-5.91-3.25c0-1.39.83-2.08,1.67-2.08s1.64.71,1.64,2.08v.75h-3.31Z"/><rect class="cls-1" x="127.36" y="44.75" width="2.56" height="13.76"/><path class="cls-1" d="M137.15,44.46a3.54,3.54,0,0,0-2.64,1v-.75h-2.56V58.51h2.56V48.29c0-.75,1-1.29,1.58-1.29,1,0,1.54.62,1.54,1.67v9.85h2.6V48.15C140.23,45.82,139,44.61,137.15,44.46Z"/><path class="cls-1" d="M158.19,44.46a3.54,3.54,0,0,0-2.64,1V41H153V58.51h2.58V48.29c0-.75,1-1.29,1.58-1.29,1,0,1.54.62,1.54,1.67v9.85h2.6V48.15C161.27,45.82,160,44.61,158.19,44.46Z"/><path class="cls-1" d="M179.05,55c0,.75-1,1.27-1.6,1.29-1,0-1.54-.62-1.54-1.67V44.75h-2.6V55.12c0,2.33,1.23,3.52,3.08,3.66a3.52,3.52,0,0,0,2.66-1v.75h2.56V44.75h-2.56Z"/><path class="cls-1" d="M128.63,40.72a1.53,1.53,0,1,0,1.54,1.54A1.53,1.53,0,0,0,128.63,40.72Z"/><path class="cls-1" d="M167.27,44.44A4.13,4.13,0,0,0,163,48.71v5.93a4.25,4.25,0,0,0,8.49,0V48.71A4,4,0,0,0,167.27,44.44Zm1.75,10a1.7,1.7,0,1,1-3.35,0v-5.7a1.72,1.72,0,0,1,1.69-1.83A1.64,1.64,0,0,1,169,48.77Z"/><path class="cls-1" d="M123.89,42.32h-2.56v2.44h-6A4,4,0,0,0,111,48.61c0,1.6,1.06,2.79,2.83,3.75,1.17.65,3,1.21,3,2.66a1.38,1.38,0,0,1-1.6,1.42c-1.42-.1-1.81-1.31-1.73-2.71h-2.85c-.06,2.44.92,5.1,4.52,5.1,2.73,0,4.39-1.46,4.45-3.77,0-2.14-1.21-3.41-3.48-4.37-1-.42-2.41-1.19-2.44-2.25A1.5,1.5,0,0,1,115.29,47h6v8.39a4.16,4.16,0,0,0,1.29,3.16h2.79a4.45,4.45,0,0,1-1.52-3.16V47h2V44.75h-2Z"/><polygon class="cls-1" points="95.89 51.83 93.97 40.99 91.1 40.99 89.02 51.83 87.39 40.99 84.42 40.99 87.54 58.52 90.22 58.52 92.53 46.59 94.64 58.52 97.43 58.52 100.49 40.99 97.76 40.99 95.89 51.83"/><path class="cls-1" d="M188.94,50.62c-1.06-.58-2.77-1.21-2.77-2.33A1.55,1.55,0,0,1,187.61,47c1,0,1.6.67,1.58,2.1h2.75c0-3.31-2-4.35-4-4.5a4.1,4.1,0,0,0-4.46,3.85c0,2.39,2.12,3.54,3.93,4.43,1.06.54,1.89,1.23,1.89,2.17a1.44,1.44,0,0,1-1.67,1.52c-1,0-1.89-1.1-1.94-2.73H183a4.53,4.53,0,0,0,4.48,5c2.79,0,4.56-1.75,4.6-3.68S190.92,51.73,188.94,50.62Z"/></g></svg>