<svg xmlns="http://www.w3.org/2000/svg" width="24" height="24" viewBox="0 0 24 24"><defs><style>.cls-1{fill:#b1b1b1;}</style></defs><title>icon-tecno</title><g id="parts"><rect class="cls-1" x="6.44" y="12.24" width="2.52" height="7.76" rx="1.04" ry="1.04"/><rect class="cls-1" x="15.04" y="12.24" width="2.52" height="7.76" rx="1.04" ry="1.04"/><path class="cls-1" d="M19.23,14.12v-2.6a7.23,7.23,0,0,0-.77-3.25.48.48,0,0,0,0-.54,7.52,7.52,0,0,0-13,0,.48.48,0,0,0,0,.54,7.23,7.23,0,0,0-.77,3.25v2.6a1.45,1.45,0,0,0-.53,1.12V17a1.45,1.45,0,0,0,1.45,1.45h.1V13.79h-.1a1.45,1.45,0,0,0-.53.1V11.52a6.84,6.84,0,0,1,.72-3.07.48.48,0,0,0,.46-.24,6.55,6.55,0,0,1,11.31,0,.48.48,0,0,0,.42.24h0a6.84,6.84,0,0,1,.72,3.06v2.37a1.45,1.45,0,0,0-.53-.1h-.1v4.66h.1A1.45,1.45,0,0,0,19.76,17V15.24A1.45,1.45,0,0,0,19.23,14.12Z"/></g></svg>