<svg xmlns="http://www.w3.org/2000/svg" width="24" height="24" viewBox="0 0 24 24"><defs><style>.cls-1{fill:#b1b1b1;}</style></defs><title>icon-construccion</title><g id="parts"><path class="cls-1" d="M20.54,6.26,18.43,8,16.91,6.46l2-1.84a7.39,7.39,0,0,0-1.95-.28A9.83,9.83,0,0,0,15.2,5.95a18.56,18.56,0,0,0-.14,2.39l-5.9,5.88s-2-.06-2.24,0a4,4,0,0,0-1.39,1.36,14,14,0,0,0,0,2.51l2.1-1.8,1.53,1.56L7.21,19.7A7.39,7.39,0,0,0,9.16,20a9.82,9.82,0,0,0,1.71-1.62A18.56,18.56,0,0,0,11,16l5.89-5.86s2,.08,2.24,0a4,4,0,0,0,1.4-1.35A14,14,0,0,0,20.54,6.26Z"/><path class="cls-1" d="M18.12,19.41l1.53-1.59a.47.47,0,0,0,0-.65l-5-4.89-2.05,2,4.82,5.08A.47.47,0,0,0,18.12,19.41Z"/><polygon class="cls-1" points="9.78 7.32 7.89 9.18 10.42 11.96 12.37 10.01 9.78 7.32"/><path class="cls-1" d="M3.6,8.7l2.06,2a.63.63,0,0,0,.87,0l5.84-5.63L11.37,4s-1.89.89-2.18,1A19.22,19.22,0,0,1,6.5,4.94L3.6,7.8A.63.63,0,0,0,3.6,8.7Z"/></g></svg>