<svg xmlns="http://www.w3.org/2000/svg" width="24" height="24" viewBox="0 0 24 24"><defs><style>.cls-1{fill:#b1b1b1;}</style></defs><title>icon-repuesto</title><g id="parts"><path class="cls-1" d="M18.45,11.33a33.78,33.78,0,0,0-6.45-1,33.78,33.78,0,0,0-6.45,1,6.62,6.62,0,0,0,0,.67,6.5,6.5,0,0,0,0,.65,7.35,7.35,0,0,1,5.94,5.81l.51,0,.51,0c.26-1.28,1.3-4.58,5.94-5.8a6.52,6.52,0,0,0,0-1.33ZM12,13.51a1.08,1.08,0,1,1,1.08-1.08A1.08,1.08,0,0,1,12,13.51Z"/><path class="cls-1" d="M12,4a8,8,0,1,0,8,8A8,8,0,0,0,12,4Zm0,14.86A6.86,6.86,0,1,1,18.86,12,6.86,6.86,0,0,1,12,18.86Z"/></g></svg>