<svg xmlns="http://www.w3.org/2000/svg" width="24" height="24" viewBox="0 0 24 24"><defs><style>.cls-1{fill:#b1b1b1;}</style></defs><title>icon-herramientas</title><g id="parts"><path class="cls-1" d="M17.23,5.3H15.83v3h1.39l1-.56V5.86Zm.1,1.81a.11.11,0,0,1-.11.11H16.15A.11.11,0,0,1,16,7.11h0A.11.11,0,0,1,16.15,7h1.07a.11.11,0,0,1,.11.11Zm0-.64a.11.11,0,0,1-.11.11H16.15A.11.11,0,0,1,16,6.47h0a.11.11,0,0,1,.11-.11h1.07a.11.11,0,0,1,.11.11Z"/><path class="cls-1" d="M15.2,4.45h-.85V5.58h.85a.21.21,0,1,1,0,.43h-.85v.5h.85a.21.21,0,1,1,0,.43h-.85v.5h.85a.21.21,0,1,1,0,.43h-.85V8.94h.85a.64.64,0,0,0,.64-.64V5.09A.64.64,0,0,0,15.2,4.45Z"/><path class="cls-1" d="M5.09,4A2.67,2.67,0,0,0,2.94,5.09H6.35a.32.32,0,1,1,0,.64H2.59a2.66,2.66,0,0,0-.16.64H6.35a.32.32,0,0,1,0,.64H2.43a2.66,2.66,0,0,0,.16.64H6.35a.32.32,0,0,1,0,.64H3A2.67,2.67,0,0,0,5.09,9.35h8.83V4Z"/><polygon class="cls-1" points="7.79 16.8 3.95 16.8 5.4 9.35 9.23 9.35 7.79 16.8"/><path class="cls-1" d="M2.41,17.48H13.07a0,0,0,0,1,0,0v.84A1.68,1.68,0,0,1,11.38,20H4.1a1.68,1.68,0,0,1-1.68-1.68v-.84A0,0,0,0,1,2.41,17.48Z"/><path class="cls-1" d="M2.41,15.74H13.07a0,0,0,0,1,0,0v0A1.28,1.28,0,0,1,11.79,17H3.69a1.28,1.28,0,0,1-1.28-1.28v0A0,0,0,0,1,2.41,15.74Z" transform="translate(15.48 32.76) rotate(180)"/><path class="cls-1" d="M11.08,11.67H9.16l.43-1.92h1.49A1.59,1.59,0,0,0,11.08,11.67Z"/><polygon class="cls-1" points="20.41 6.58 19.99 6.58 19.78 7 20.2 7 20.41 6.58"/><polygon class="cls-1" points="19.78 6.58 19.35 6.58 19.14 7 19.56 7 19.78 6.58"/><polygon class="cls-1" points="18.5 7 18.92 7 19.14 6.58 18.71 6.58 18.5 7"/><polygon class="cls-1" points="21.05 6.58 20.63 6.58 20.41 7 20.84 7 21.05 6.58"/><path class="cls-1" d="M21.37,6.58h-.11L21.05,7h.32a.21.21,0,1,0,0-.43Z"/><polygon class="cls-1" points="18.5 6.58 17.54 6.58 17.54 7 18.29 7 18.5 6.58"/></g></svg>