<svg xmlns="http://www.w3.org/2000/svg" width="24" height="24" viewBox="0 0 24 24"><defs><style>.cls-1{fill:#b1b1b1;}</style></defs><title>icon-electro</title><g id="parts"><path class="cls-1" d="M11.56,4H5.33a.44.44,0,0,0-.44.44v4H12v-4A.44.44,0,0,0,11.56,4ZM5.78,7.5a.18.18,0,0,1-.36,0V5.42a.18.18,0,1,1,.36,0Z"/><path class="cls-1" d="M4.89,9.16v10.4a.44.44,0,0,0,.44.44h5.42a.18.18,0,0,1-.18-.18V10.39a.66.66,0,0,1,.71-.71H12V9.16Zm.89,4.27a.18.18,0,1,1-.36,0V10a.18.18,0,0,1,.36,0Z"/><path class="cls-1" d="M11.4,12.73v6.84a.43.43,0,0,0,.43.43h6.85a.43.43,0,0,0,.43-.43V12.73Zm3.85,6.2A2.78,2.78,0,1,1,18,16.15,2.78,2.78,0,0,1,15.26,18.93Z"/><path class="cls-1" d="M16.77,16.83a.18.18,0,0,1-.14-.17V15.35a.18.18,0,0,1,.14-.17l.38-.08a2.22,2.22,0,1,0,0,1.81Z"/><path class="cls-1" d="M18.68,10.58H11.74a.34.34,0,0,0-.34.34v1.37h7.71V11A.43.43,0,0,0,18.68,10.58Zm-6.49,1a.28.28,0,1,1,.28-.28A.28.28,0,0,1,12.19,11.61Zm.86,0a.28.28,0,1,1,.28-.28A.28.28,0,0,1,13.05,11.61Zm.86,0a.28.28,0,1,1,.28-.28A.28.28,0,0,1,13.91,11.61Zm4.35.07a.1.1,0,0,1-.1.1h-1.5a.1.1,0,0,1-.1-.1V11a.1.1,0,0,1,.1-.1h1.5a.1.1,0,0,1,.1.1Z"/></g></svg>